<mxfile host="app.diagrams.net" agent="Mozilla/5.0 (Macintosh; Intel Mac OS X 10_15_7) AppleWebKit/537.36 (KHTML, like Gecko) Chrome/140.0.0.0 Safari/537.36 Edg/140.0.0.0" version="28.2.5">
  <diagram name="第 1 页" id="XNJceadkj2XwaVqAEHhQ">
    <mxGraphModel dx="994" dy="565" grid="1" gridSize="10" guides="1" tooltips="1" connect="1" arrows="1" fold="1" page="1" pageScale="1" pageWidth="1169" pageHeight="827" math="0" shadow="0">
      <root>
        <mxCell id="0" />
        <mxCell id="1" parent="0" />
        <mxCell id="N4Hn8YzOP6wttgMmx8Ve-17" value="" style="rounded=1;whiteSpace=wrap;html=1;dashed=1;dashPattern=12 12;" vertex="1" parent="1">
          <mxGeometry x="110" y="290" width="660" height="130" as="geometry" />
        </mxCell>
        <mxCell id="N4Hn8YzOP6wttgMmx8Ve-15" value="" style="rounded=1;whiteSpace=wrap;html=1;dashed=1;dashPattern=12 12;" vertex="1" parent="1">
          <mxGeometry x="110" y="90" width="660" height="130" as="geometry" />
        </mxCell>
        <mxCell id="N4Hn8YzOP6wttgMmx8Ve-9" style="edgeStyle=orthogonalEdgeStyle;rounded=0;orthogonalLoop=1;jettySize=auto;html=1;exitX=0.5;exitY=1;exitDx=0;exitDy=0;shape=link;" edge="1" parent="1" source="N4Hn8YzOP6wttgMmx8Ve-1" target="N4Hn8YzOP6wttgMmx8Ve-3">
          <mxGeometry relative="1" as="geometry" />
        </mxCell>
        <mxCell id="N4Hn8YzOP6wttgMmx8Ve-12" style="rounded=0;orthogonalLoop=1;jettySize=auto;html=1;exitX=0.75;exitY=1;exitDx=0;exitDy=0;entryX=0.25;entryY=0;entryDx=0;entryDy=0;shape=link;strokeColor=default;" edge="1" parent="1" source="N4Hn8YzOP6wttgMmx8Ve-1" target="N4Hn8YzOP6wttgMmx8Ve-5">
          <mxGeometry relative="1" as="geometry" />
        </mxCell>
        <mxCell id="N4Hn8YzOP6wttgMmx8Ve-1" value="Serial" style="rounded=1;whiteSpace=wrap;html=1;" vertex="1" parent="1">
          <mxGeometry x="160" y="140" width="120" height="60" as="geometry" />
        </mxCell>
        <mxCell id="N4Hn8YzOP6wttgMmx8Ve-11" style="edgeStyle=orthogonalEdgeStyle;rounded=0;orthogonalLoop=1;jettySize=auto;html=1;exitX=0.5;exitY=1;exitDx=0;exitDy=0;shape=link;" edge="1" parent="1" source="N4Hn8YzOP6wttgMmx8Ve-2" target="N4Hn8YzOP6wttgMmx8Ve-6">
          <mxGeometry relative="1" as="geometry" />
        </mxCell>
        <mxCell id="N4Hn8YzOP6wttgMmx8Ve-2" value="Parallel" style="rounded=1;whiteSpace=wrap;html=1;" vertex="1" parent="1">
          <mxGeometry x="600" y="140" width="120" height="60" as="geometry" />
        </mxCell>
        <mxCell id="N4Hn8YzOP6wttgMmx8Ve-14" style="rounded=0;orthogonalLoop=1;jettySize=auto;html=1;exitX=0.75;exitY=0;exitDx=0;exitDy=0;entryX=0.25;entryY=1;entryDx=0;entryDy=0;shape=link;" edge="1" parent="1" source="N4Hn8YzOP6wttgMmx8Ve-3" target="N4Hn8YzOP6wttgMmx8Ve-4">
          <mxGeometry relative="1" as="geometry" />
        </mxCell>
        <mxCell id="N4Hn8YzOP6wttgMmx8Ve-3" value="CMS" style="rounded=1;whiteSpace=wrap;html=1;" vertex="1" parent="1">
          <mxGeometry x="160" y="310" width="120" height="60" as="geometry" />
        </mxCell>
        <mxCell id="N4Hn8YzOP6wttgMmx8Ve-10" style="edgeStyle=orthogonalEdgeStyle;rounded=0;orthogonalLoop=1;jettySize=auto;html=1;exitX=0.5;exitY=1;exitDx=0;exitDy=0;shape=link;" edge="1" parent="1" source="N4Hn8YzOP6wttgMmx8Ve-4" target="N4Hn8YzOP6wttgMmx8Ve-5">
          <mxGeometry relative="1" as="geometry" />
        </mxCell>
        <mxCell id="N4Hn8YzOP6wttgMmx8Ve-4" value="ParNew" style="rounded=1;whiteSpace=wrap;html=1;" vertex="1" parent="1">
          <mxGeometry x="380" y="140" width="120" height="60" as="geometry" />
        </mxCell>
        <mxCell id="N4Hn8YzOP6wttgMmx8Ve-13" style="rounded=0;orthogonalLoop=1;jettySize=auto;html=1;exitX=0.75;exitY=0;exitDx=0;exitDy=0;entryX=0.25;entryY=1;entryDx=0;entryDy=0;shape=link;" edge="1" parent="1" source="N4Hn8YzOP6wttgMmx8Ve-5" target="N4Hn8YzOP6wttgMmx8Ve-2">
          <mxGeometry relative="1" as="geometry" />
        </mxCell>
        <mxCell id="N4Hn8YzOP6wttgMmx8Ve-5" value="Serial Old" style="rounded=1;whiteSpace=wrap;html=1;" vertex="1" parent="1">
          <mxGeometry x="380" y="310" width="120" height="60" as="geometry" />
        </mxCell>
        <mxCell id="N4Hn8YzOP6wttgMmx8Ve-6" value="Parallel Old" style="rounded=1;whiteSpace=wrap;html=1;" vertex="1" parent="1">
          <mxGeometry x="600" y="310" width="120" height="60" as="geometry" />
        </mxCell>
        <mxCell id="N4Hn8YzOP6wttgMmx8Ve-16" value="&lt;font style=&quot;font-size: 18px;&quot;&gt;作用于年轻代&lt;/font&gt;" style="text;html=1;align=center;verticalAlign=middle;whiteSpace=wrap;rounded=0;" vertex="1" parent="1">
          <mxGeometry x="280" y="100" width="130" height="30" as="geometry" />
        </mxCell>
        <mxCell id="N4Hn8YzOP6wttgMmx8Ve-18" value="&lt;font style=&quot;font-size: 18px;&quot;&gt;作用于老年代&lt;/font&gt;" style="text;html=1;align=center;verticalAlign=middle;whiteSpace=wrap;rounded=0;" vertex="1" parent="1">
          <mxGeometry x="280" y="384" width="130" height="30" as="geometry" />
        </mxCell>
      </root>
    </mxGraphModel>
  </diagram>
</mxfile>
